name D:\school\WTK\thesis\model\3dpredictsim\Results\MuscleModel\Fal_s1_bCst_ig24.mot
datacolumns 126
datarows 4
range 0.53897483 0.57131332
endheader
time	pelvis_tilt	pelvis_list	pelvis_rotation	pelvis_tx	pelvis_ty	pelvis_tz	hip_flexion_l	hip_adduction_l	hip_rotation_l	hip_flexion_r	hip_adduction_r	hip_rotation_r	knee_angle_l	knee_angle_r	ankle_angle_l	ankle_angle_r	subtalar_angle_l	subtalar_angle_r	mtp_angle_l	mtp_angle_r	lumbar_extension	lumbar_bending	lumbar_rotation	arm_flex_l	arm_add_l	arm_rot_l	arm_flex_r	arm_add_r	arm_rot_r	elbow_flex_l	elbow_flex_r	pro_sup_l	pro_sup_r	glut_med1_l/activation	glut_med2_l/activation	glut_med3_l/activation	glut_min1_l/activation	glut_min2_l/activation	glut_min3_l/activation	semimem_l/activation	semiten_l/activation	bifemlh_l/activation	bifemsh_l/activation	sar_l/activation	add_long_l/activation	add_brev_l/activation	add_mag1_l/activation	add_mag2_l/activation	add_mag3_l/activation	tfl_l/activation	pect_l/activation	grac_l/activation	glut_max1_l/activation	glut_max2_l/activation	glut_max3_l/activation	iliacus_l/activation	psoas_l/activation	quad_fem_l/activation	gem_l/activation	peri_l/activation	rect_fem_l/activation	vas_med_l/activation	vas_int_l/activation	vas_lat_l/activation	med_gas_l/activation	lat_gas_l/activation	soleus_l/activation	tib_post_l/activation	flex_dig_l/activation	flex_hal_l/activation	tib_ant_l/activation	per_brev_l/activation	per_long_l/activation	per_tert_l/activation	ext_dig_l/activation	ext_hal_l/activation	ercspn_l/activation	intobl_l/activation	extobl_l/activation	glut_med1_r/activation	glut_med2_r/activation	glut_med3_r/activation	glut_min1_r/activation	glut_min2_r/activation	glut_min3_r/activation	semimem_r/activation	semiten_r/activation	bifemlh_r/activation	bifemsh_r/activation	sar_r/activation	add_long_r/activation	add_brev_r/activation	add_mag1_r/activation	add_mag2_r/activation	add_mag3_r/activation	tfl_r/activation	pect_r/activation	grac_r/activation	glut_max1_r/activation	glut_max2_r/activation	glut_max3_r/activation	iliacus_r/activation	psoas_r/activation	quad_fem_r/activation	gem_r/activation	peri_r/activation	rect_fem_r/activation	vas_med_r/activation	vas_int_r/activation	vas_lat_r/activation	med_gas_r/activation	lat_gas_r/activation	soleus_r/activation	tib_post_r/activation	flex_dig_r/activation	flex_hal_r/activation	tib_ant_r/activation	per_brev_r/activation	per_long_r/activation	per_tert_r/activation	ext_dig_r/activation	ext_hal_r/activation	ercspn_r/activation	intobl_r/activation	extobl_r/activation	
          0.53897483	         -2.92988293	          2.10106941	         -5.07359627	          0.67371853	          0.85974551	          0.00215011	         31.07885813	          3.27308708	         -1.50902922	        -18.25205899	         -1.39411001	          6.81239305	        -13.52765614	         -5.72846434	          7.18054988	          0.78325505	         -5.02855979	          9.23412101	         -0.12184783	         21.84030902	         -2.45399922	         -0.49801901	          1.94208296	         -8.32664746	        -13.53233104	          9.56941733	          9.71284426	        -13.45431102	         19.26354466	         12.21805521	         34.46818185	         86.51662706	         86.51662706	          0.13476595	          0.05000007	          0.05898287	          0.05000005	          0.05000007	          0.05000022	          0.05898308	          0.05898334	          0.19713729	          0.05000025	          0.05000125	          0.09763456	          0.15067209	          0.22432137	          0.15293465	          0.10072946	          0.05898279	          0.05003573	          0.06131211	          0.06957488	          0.06957962	          0.10344611	          0.05000007	          0.05000010	          0.28849673	          0.05072553	          0.05000026	          0.05000024	          0.08309357	          0.08510027	          0.07163087	          0.05898288	          0.05773374	          0.05898290	          0.05000004	          0.05000022	          0.05000026	          0.54267817	          0.34002272	          0.19688524	          0.21852158	          0.52072964	          0.23968752	          0.07589819	          0.10358112	          0.12153526	          0.32329945	          0.11061188	          0.07472032	          0.34305228	          0.21657887	          0.11422264	          0.05000051	          0.05000011	          0.05000007	          0.06133017	          0.11202120	          0.05000015	          0.05000009	          0.05000011	          0.05000030	          0.05000017	          0.33409554	          0.05000056	          0.05000047	          0.05001346	          0.05000230	          0.05000075	          0.36558551	          0.61075697	          0.05000035	          0.05000107	          0.05067630	          0.20535811	          0.05000034	          0.05000025	          0.05000024	          0.30877884	          0.41909609	          0.32139815	          0.28758930	          0.31697416	          0.41630761	          0.05000001	          0.05960456	          0.15611313	          0.05000010	          0.05000002	          0.05000011	          0.05000000	          0.05000000	          0.05000001	
          0.54975432	         -2.92610673	          2.19937659	         -5.37706372	          0.68974741	          0.85867210	          0.00193545	         30.45830625	          3.61437789	         -1.28359052	        -18.12132406	         -1.70253899	          6.58466612	        -13.30553841	         -7.66277660	          6.61444616	          0.07638105	         -5.43887534	         10.17962027	         -0.10044370	         22.83696521	         -2.27069651	         -0.70995347	          2.01239663	         -9.33872279	        -13.52760670	          9.48937841	          9.54660681	        -13.46478585	         19.35767328	         12.08286997	         35.65899574	         86.51662706	         86.51662706	          0.11424157	          0.05898290	          0.05000006	          0.05960774	          0.05898302	          0.05000077	          0.05000017	          0.05000045	          0.17372895	          0.05000026	          0.05000040	          0.08777031	          0.12772550	          0.19017980	          0.17811497	          0.10528732	          0.05000012	          0.05000126	          0.05197470	          0.05897932	          0.05898293	          0.11124352	          0.05000044	          0.05000053	          0.51721613	          0.13975686	          0.05000064	          0.06957975	          0.18224347	          0.18120403	          0.15767914	          0.05000000	          0.05000000	          0.05000000	          0.05000006	          0.05000025	          0.05000014	          0.59998648	          0.28936371	          0.20280483	          0.43558501	          0.57017086	          0.22558258	          0.06433914	          0.08780605	          0.10302583	          0.27406202	          0.09376605	          0.06334067	          0.29080656	          0.18359461	          0.09682691	          0.05000137	          0.05000027	          0.05000030	          0.05198982	          0.09496084	          0.11022124	          0.05259542	          0.05412656	          0.05000646	          0.05004514	          0.28321391	          0.06596801	          0.05000146	          0.05000097	          0.05000078	          0.05000079	          0.30990802	          0.54323433	          0.05000015	          0.05000269	          0.05898290	          0.17408277	          0.05000261	          0.14995836	          0.14663562	          0.26175279	          0.35526908	          0.27679324	          0.26313112	          0.26870065	          0.35431098	          0.05000001	          0.05705639	          0.16308594	          0.05000008	          0.05000001	          0.05000008	          0.05000001	          0.06957967	          0.05000001	
          0.56053382	         -2.91845287	          2.29249794	         -5.65890378	          0.70606966	          0.85759745	          0.00172693	         29.72338794	          3.90843992	         -1.00471406	        -17.91331603	         -2.00241661	          6.34603461	        -13.64898348	         -9.73546160	          5.96721817	         -0.78202830	         -5.86601388	         11.08352984	         -0.13702906	         23.68729777	         -2.06661878	         -0.92237662	          2.07322122	        -10.36928970	        -13.52402035	          9.42922784	          9.28945385	        -13.47683398	         19.38115242	         12.00734124	         36.82052149	         86.51662706	         86.51662706	          0.27055368	          0.05000004	          0.29662051	          0.05052969	          0.05000013	          0.19447693	          0.07373319	          0.05000008	          0.15712250	          0.05000003	          0.05000019	          0.08208097	          0.24731725	          0.17963424	          0.15098934	          0.12190711	          0.05000030	          0.05906407	          0.11363847	          0.05000006	          0.05000013	          0.10676931	          0.05051402	          0.05000040	          0.43844577	          0.11847238	          0.17206554	          0.05898298	          0.15448840	          0.15360727	          0.13366513	          0.06645315	          0.06957939	          0.05902244	          0.05898294	          0.05898293	          0.05898296	          0.50861042	          0.29910260	          0.17191832	          0.36924685	          0.54790948	          0.19122708	          0.05454050	          0.09094027	          0.08733532	          0.32608053	          0.07948579	          0.05369411	          0.24651778	          0.15563376	          0.08208050	          0.05000080	          0.05000029	          0.05000030	          0.05000007	          0.08049876	          0.14102419	          0.09743510	          0.05898350	          0.05898019	          0.05898259	          0.24008152	          0.08209560	          0.05000307	          0.05000606	          0.05000441	          0.05002422	          0.26271006	          0.51540667	          0.05000908	          0.05000061	          0.05000007	          0.14757053	          0.10509029	          0.12712054	          0.12430382	          0.22188866	          0.30116272	          0.23463850	          0.22305713	          0.22777850	          0.30035065	          0.05000000	          0.05000012	          0.17751625	          0.05000004	          0.05000001	          0.05000006	          0.05652568	          0.05898291	          0.05000346	
          0.57131332	         -2.90855442	          2.38580155	         -5.91167293	          0.72252921	          0.85653218	          0.00150626	         28.87045408	          4.16987004	         -0.71783806	        -17.60551350	         -2.29463972	          6.10293821	        -14.05263363	        -11.96418734	          5.49153516	         -1.78609868	         -6.28657132	         11.92458975	         -0.14450938	         24.34480049	         -1.85695757	         -1.13983981	          2.12461996	        -11.37735814	        -13.52264660	          9.40814477	          8.96442560	        -13.49200154	         19.34472897	         11.96413186	         37.93917988	         86.51662706	         86.51662706	          0.31398368	          0.28250638	          0.36419765	          0.18850801	          0.20296997	          0.16485911	          0.06250394	          0.09846017	          0.13319326	          0.08712436	          0.05898261	          0.06958032	          0.20965163	          0.15227657	          0.12799426	          0.14422349	          0.05000016	          0.05006895	          0.10047559	          0.21639897	          0.16165335	          0.11681132	          0.05000004	          0.05000005	          0.37167190	          0.10042952	          0.14586066	          0.05000007	          0.13096034	          0.13021340	          0.11330838	          0.05633255	          0.05898269	          0.05003351	          0.05000003	          0.05000007	          0.05000010	          0.65444624	          0.38532957	          0.19927284	          0.63299114	          0.62950908	          0.33039339	          0.07920946	          0.08336001	          0.07403443	          0.33527189	          0.06738036	          0.05000005	          0.37043569	          0.13193126	          0.06957992	          0.05000152	          0.05000010	          0.05000009	          0.05000012	          0.06823951	          0.14999274	          0.08259619	          0.05000076	          0.05000061	          0.05000033	          0.26827386	          0.06960183	          0.05000038	          0.05000081	          0.05000050	          0.05000034	          0.22270020	          0.47786168	          0.05000006	          0.05000042	          0.05000023	          0.13474306	          0.08908570	          0.10776099	          0.13474033	          0.18809571	          0.25529658	          0.19890379	          0.18908625	          0.19308862	          0.25460824	          0.05000002	          0.09428773	          0.18159127	          0.05000010	          0.05000018	          0.05000011	          0.07070295	          0.05000001	          0.05000001	
